/* XPM */
static char *result[] = {
/* columns rows colors chars-per-pixel */
"32 32 20 1 ",
"  c black",
". c #2D2420",
"X c #342A25",
"o c #3C312C",
"O c #7A2D18",
"+ c #512D23",
"@ c #5B3C2C",
"# c #453A35",
"$ c #5A5237",
"% c #645C3F",
"& c #5E724A",
"* c #70694F",
"= c #677755",
"- c #6A7A5A",
"; c #70805F",
": c #778667",
"> c #8DAB5F",
", c #A2A97F",
"< c #BEC49F",
"1 c None",
/* pixels */
"11111111111111111111111111111111",
"11111111111111111111111111111111",
"11111111111111111111111111111111",
"11111111111111111111111111111111",
"11111111111111111111111111111111",
"11111111111111111111111111111111",
"11111111111     1111111111111111",
"1111111111 @++@@ 111111111111111",
"111111111 @@++@&& 11111111111111",
"11111111 @&@+@&&&& 1111111111111",
"11111111 &&@@=&&&& 1111111111111",
"11111111 &=@;;==&& 1111111111111",
"11111111 =;@;;;;=& 1111111111111",
"11111111   ;@   ;& 1111111111111",
"11111111 <>;@><;; 11111111111111",
"11111111 =;;@;;;;  1111111111111",
"11111111 =;;;@@;&o# 111111111111",
"11111111 &,;,;,@o## 111111111111",
"111111111 &,O,Ooo## 111111111111",
"111111111 +&OOooo## 111111111111",
"111111111 +oooooo## 111111111111",
"11111111 #: XXX-## 1111111111111",
"11111111 ##  XX-## 1111111111111",
"11111111 ##  ...## 1111111111111",
"11111111 ## %%%%##$ 111111111111",
"11111111 :: %%$%::$ 111111111111",
"111111111   *%***$ 1111111111111",
"111111111111 O%%$ 11111111111111",
"1111111111111 -- 111111111111111",
"111111111111 ::- 111111111111111",
"111111111111     111111111111111",
"11111111111111111111111111111111"
};
