/* XPM */
static char *result[] = {
/* columns rows colors chars-per-pixel */
"32 32 22 1 ",
"  c black",
". c #342A25",
"X c #3C312C",
"o c #7A2D18",
"O c #512D23",
"+ c #5B3C2C",
"@ c #453A35",
"# c #4A413C",
"$ c #5A5237",
"% c #60583C",
"& c #645C3F",
"* c #695D58",
"= c #5E724A",
"- c #70694F",
"; c #677755",
": c #6A7A5A",
"> c #70805F",
", c #778667",
"< c #8DAB5F",
"1 c #A2A97F",
"2 c #BEC49F",
"3 c None",
/* pixels */
"33333333333333333333333333333333",
"33333333333333333333333333333333",
"33333333333333333333333333333333",
"33333333333333333333333333333333",
"33333333333333333333333333333333",
"3333333333     33333333333333333",
"333333333 +OO++ 3333333333333333",
"33333333 ++OO+== 333333333333333",
"3333333 +=+O+==== 33333333333333",
"3333333 ==++;==== 33333333333333",
"3333333 =;+>>;;== 33333333333333",
"3333333 ;>+>>>>;= 33333333333333",
"3333333   >+   >= 33333333333333",
"3333333 2<>+<2>> 333333333333333",
"3333333 ;>>+>>>> 333333333333333",
"3333333 ;>>>++>= 333333333333333",
"3333333 =1>1>1+X@ 33333333333333",
"33333333 =1o1oXX@@ 3333333333333",
"33333333 X=ooXXX@@ 3333333333333",
"33333333 OXXXXX@@ 33333333333333",
"33333333 ,XXXXX@@ 33333333333333",
"3333333 @@ ...:@@ 33333333333333",
"3333333 @@  ..:@@ 33333333333333",
"333333 @@ 3 ..@@. 33333333333333",
"333333 ,,  &%%,,&$ 3333333333333",
"3333333  3 &%$&&&$ 3333333333333",
"3333333333 &%$--- 33333333333333",
"333333333 &&%o $=: 3333333333333",
"333333333 ## 33  , 3333333333333",
"33333333 **# 3333 33333333333333",
"33333333     33    3333333333333",
"33333333333333333333333333333333"
};
