/* XPM */
static char *result[] = {
/* columns rows colors chars-per-pixel */
"32 32 21 1 ",
"  c black",
". c #2D2420",
"X c #342A25",
"o c #3C312C",
"O c #7A2D18",
"+ c #512D23",
"@ c #5B3C2C",
"# c #453A35",
"$ c #5A5237",
"% c #645C3F",
"& c #625652",
"* c #5E724A",
"= c #70694F",
"- c #677755",
"; c #6A7A5A",
": c #70805F",
"> c #778667",
", c #8DAB5F",
"< c #A2A97F",
"1 c #BEC49F",
"2 c None",
/* pixels */
"22222222222222222222222222222222",
"22222222222222222222222222222222",
"22222222222222222222222222222222",
"22222222222222222222222222222222",
"22222222222222222222222222222222",
"222222222222222     222222222222",
"22222222222222 @++++ 22222222222",
"2222222222222 @*@++@* 2222222222",
"222222222222 +@*@+@*** 222222222",
"222222222222 +@*@@-*** 222222222",
"222222222222 @*-@::-** 222222222",
"222222222222 *-:@:::-* 222222222",
"222222222222 -  :@:  - 222222222",
"222222222222 -1,:@:,1- 222222222",
"222222222222 :::::@::: 222222222",
"222222222222 *:::::@:* 222222222",
"222222222222 #*<:<:<@# 222222222",
"222222222222 +o*<O<Oo# 222222222",
"222222222222 >+o*OOoo## 22222222",
"222222222222 #>oooooo## 22222222",
"222222222222 ##oooo:X## 22222222",
"2222222222222 #XXX;;  # 22222222",
"2222222222222 ##XX;X  ## 2222222",
"2222222222222 >>....  ## 2222222",
"2222222222222 %%%%%%% >> 2222222",
"2222222222222 %%%$%%%   22222222",
"2222222222222 === $%% 2222222222",
"2222222222222 && 2 %% 2222222222",
"22222222222222  22 ;; 2222222222",
"222222222222222O22 >> 2222222222",
"2222222222222    2    2222222222",
"22222222222222222222222222222222"
};
