/* XPM */
static char *result[] = {
/* columns rows colors chars-per-pixel */
"32 32 23 1 ",
"  c black",
". c #2D2420",
"X c #342A25",
"o c #3C312C",
"O c #7A2D18",
"+ c #512D23",
"@ c #5B3C2C",
"# c #453A35",
"$ c #4A413C",
"% c #5A5237",
"& c #60583C",
"* c #645C3F",
"= c #695D58",
"- c #5E724A",
"; c #70694F",
": c #677755",
"> c #6A7A5A",
", c #70805F",
"< c #778667",
"1 c #8DAB5F",
"2 c #A2A97F",
"3 c #BEC49F",
"4 c None",
/* pixels */
"44444444444444444444444444444444",
"44444444444444444444444444444444",
"44444444444444444444444444444444",
"44444444444444444444444444444444",
"44444444444444444444444444444444",
"44444444444444444444444444444444",
"44444444444444444444444444444444",
"444444444     444444444444444444",
"44444444 @++@@ 44444444444444444",
"4444444 @@++@-- 4444444444444444",
"444444 @-@+@---- 444444444444444",
"444444 --@@:---- 444444444444444",
"444444 -:@,,::-- 444444444444444",
"444444 :,@,,,,:- 444444444444444",
"444444   ,@   ,- 444444444444444",
"444444 31,@13,, 4444444444444444",
"444444 :,,@,,,,  444444444444444",
"444444 :,,,@@,-o# 44444444444444",
"444444 -2,2,2@oo## 4444444444444",
"4444444 -2O2Oooo## 4444444444444",
"44444444 -OOooo## 44444444444444",
"44444444 <ooooo## 44444444444444",
"4444444 ## XXX>## 44444444444444",
"4444444 ##4 ...## 44444444444444",
"444444 ##  ***##** 4444444444444",
"444444 <<  *&%<<** 4444444444444",
"4444444  4 *&%;;;-> 444444444444",
"444444444 **&  %% > 444444444444",
"444444444 $$O4O  4 4444444444444",
"44444444 ==$ 4444444444444444444",
"44444444     4444   444444444444",
"44444444444444444444444444444444"
};
