/* XPM */
static char *result[] = {
/* columns rows colors chars-per-pixel */
"32 32 22 1 ",
"  c black",
". c #342A25",
"X c #3C312C",
"o c #7A2D18",
"O c #512D23",
"+ c #5B3C2C",
"@ c #453A35",
"# c #4A413C",
"$ c #5A5237",
"% c #60583C",
"& c #645C3F",
"* c #695D58",
"= c #5E724A",
"- c #70694F",
"; c #677755",
": c #6A7A5A",
"> c #70805F",
", c #778667",
"< c #8DAB5F",
"1 c #A2A97F",
"2 c #BEC49F",
"3 c None",
/* pixels */
"33333333333333333333333333333333",
"33333333333333333333333333333333",
"33333333333333333333333333333333",
"33333333333333333333333333333333",
"33333333333333333333333333333333",
"33333333333333333     3333333333",
"3333333333333333 =+OOO 333333333",
"333333333333333 O++OO+= 33333333",
"33333333333333 OO+=+O+== 3333333",
"33333333333333 O+==++;== 3333333",
"33333333333333 +=;;>+>;= 3333333",
"33333333333333 =;>>>+>>; 3333333",
"33333333333333 =>   >+   3333333",
"333333333333333 >>2<>+<2 3333333",
"333333333333333 >>>>>+>; 3333333",
"333333333333333 =>>>>>+; 3333333",
"33333333333333 @X=1>1>1+ 3333333",
"3333333333333 @OXX=1o1o 33333333",
"3333333333333 @OXXX=ooX 33333333",
"33333333333333 ,OXXXXX@ 33333333",
"33333333333333 @,XXX>X@ 33333333",
"33333333333333 @@..:: @@ 3333333",
"33333333333333 @@..:  @@ 3333333",
"33333333333333 .@@.. 3 @@ 333333",
"3333333333333 $&,,%%&  ,, 333333",
"3333333333333 $&&&$%& 3  3333333",
"33333333333333 ---$%& 3333333333",
"3333333333333 ##$ o%&& 333333333",
"3333333333333 *  33 :> 333333333",
"33333333333333 3333 :,, 33333333",
"3333333333333    33     33333333",
"33333333333333333333333333333333"
};
