/* XPM */
static char *result[] = {
/* columns rows colors chars-per-pixel */
"32 32 18 1 ",
"  c black",
". c #2D2420",
"X c #342A25",
"o c #3C312C",
"O c #7A2D18",
"+ c #512D23",
"@ c #5B3C2C",
"# c #453A35",
"$ c #5A5237",
"% c #645C3F",
"& c #695D58",
"* c #5E724A",
"= c #677755",
"- c #667556",
"; c #6A7A5A",
": c #70805F",
"> c #778667",
", c None",
/* pixels */
",,,,,,,,,,,,,,,,,,,,,,,,,,,,,,,,",
",,,,,,,,,,,,,,,,,,,,,,,,,,,,,,,,",
",,,,,,,,,,,,,,,,,,,,,,,,,,,,,,,,",
",,,,,,,,,,,,,,,,,,,,,,,,,,,,,,,,",
",,,,,,,,,,,,,,,,,,,,,,,,,,,,,,,,",
",,,,,,,,,,,,,,,,,,,,,,,,,,,,,,,,",
",,,,,,,,,,,,     ,,,,,,,,,,,,,,,",
",,,,,,,,,,, @++++ ,,,,,,,,,,,,,,",
",,,,,,,,,, **@+@** ,,,,,,,,,,,,,",
",,,,,,,,, ***@@**** ,,,,,,,,,,,,",
",,,,,,,,, ***@==*** ,,,,,,,,,,,,",
",,,,,,,,, **=@::=** ,,,,,,,,,,,,",
",,,,,,,,, *=:@:::=* ,,,,,,,,,,,,",
",,,,,,,,, =:@>>>::= ,,,,,,,,,,,,",
",,,,,,,,, =@:>>>::= ,,,,,,,,,,,,",
",,,,,,,,, =@:XXX::= ,,,,,,,,,,,,",
",,,,,,,,, XXXXXXXXX ,,,,,,,,,,,,",
",,,,,,,,, XXXXXXXXX ,,,,,,,,,,,,",
",,,,,,,,, XXXXXXXXX ,,,,,,,,,,,,",
",,,,,,,,, .XXXXXXX. ,,,,,,,,,,,,",
",,,,,,,,, ..XXXXX.. ,,,,,,,,,,,,",
",,,,,,,,, ..ooo:o.. ,,,,,,,,,,,,",
",,,,,,,,, ..oo:oo.. ,,,,,,,,,,,,",
",,,,,,,,, ..#>>>#.. ,,,,,,,,,,,,",
",,,,,,,,, .%%%%%%%. ,,,,,,,,,,,,",
",,,,,,,,, -%%%$%%%- ,,,,,,,,,,,,",
",,,,,,,,,, %$$ $$% ,,,,,,,,,,,,,",
",,,,,,,,,, %% , && ,,,,,,,,,,,,,",
",,,,,,,,,, ;; O && ,,,,,,,,,,,,,",
",,,,,,,,,, >> ,,  ,,,,,,,,,,,,,,",
",,,,,,,,,,    ,    ,,,,,,,,,,,,,",
",,,,,,,,,,,,,,,,,,,,,,,,,,,,,,,,"
};
