/* XPM */
static char *result[] = {
/* columns rows colors chars-per-pixel */
"32 32 18 1 ",
"  c black",
". c #2D2420",
"X c #302723",
"o c #342A25",
"O c #3C312C",
"+ c #512D23",
"@ c #5B3C2C",
"# c #453A35",
"$ c #4A413C",
"% c #5A5237",
"& c #645C3F",
"* c #695D58",
"= c #5E724A",
"- c #677755",
"; c #667556",
": c #70805F",
"> c #778667",
", c None",
/* pixels */
",,,,,,,,,,,,,,,,,,,,,,,,,,,,,,,,",
",,,,,,,,,,,,,,,,,,,,,,,,,,,,,,,,",
",,,,,,,,,,,,,,,,,,,,,,,,,,,,,,,,",
",,,,,,,,,,,,,,,,,,,,,,,,,,,,,,,,",
",,,,,,,,,,,,,,,,,,,,,,,,,,,,,,,,",
",,,,,,,,,,,,,     ,,,,,,,,,,,,,,",
",,,,,,,,,,,, @++++ ,,,,,,,,,,,,,",
",,,,,,,,,,, ==@+@== ,,,,,,,,,,,,",
",,,,,,,,,, ===@@==== ,,,,,,,,,,,",
",,,,,,,,,, ===@--=== ,,,,,,,,,,,",
",,,,,,,,,, ==-@::-== ,,,,,,,,,,,",
",,,,,,,,,, =-:@:::-= ,,,,,,,,,,,",
",,,,,,,,,, -:@:::::- ,,,,,,,,,,,",
",,,,,,,,,, -@:>>>::- ,,,,,,,,,,,",
",,,,,,,,,, -@:>>>::- ,,,,,,,,,,,",
",,,,,,,,,, =@:ooo:-= ,,,,,,,,,,,",
",,,,,,,,,, ooooooooo ,,,,,,,,,,,",
",,,,,,,,,, ooooooooo ,,,,,,,,,,,",
",,,,,,,,,, oooooooooX ,,,,,,,,,,",
",,,,,,,,,, XoooooooXX ,,,,,,,,,,",
",,,,,,,,,, X.ooooo.XX ,,,,,,,,,,",
",,,,,,,,,,, XOOO:O  X ,,,,,,,,,,",
",,,,,,,,,,, XOO:OO  XX ,,,,,,,,,",
",,,,,,,,,,, X#>>>#  XX ,,,,,,,,,",
",,,,,,,,,,, &&&&&&& ;; ,,,,,,,,,",
",,,,,,,,,,, &&&%&&&   ,,,,,,,,,,",
",,,,,,,,,,, >>% %%& ,,,,,,,,,,,,",
",,,,,,,,,,, >> , && ,,,,,,,,,,,,",
",,,,,,,,,,,,  ,, $$ ,,,,,,,,,,,,",
",,,,,,,,,,,,,,,, ** ,,,,,,,,,,,,",
",,,,,,,,,,,    ,    ,,,,,,,,,,,,",
",,,,,,,,,,,,,,,,,,,,,,,,,,,,,,,,"
};
