/* XPM */
static char *result[] = {
/* columns rows colors chars-per-pixel */
"32 32 22 1 ",
"  c black",
". c #2D2420",
"X c #342A25",
"o c #3C312C",
"O c #7A2D18",
"+ c #512D23",
"@ c #5B3C2C",
"# c #453A35",
"$ c #4A413C",
"% c #5A5237",
"& c #645C3F",
"* c #695D58",
"= c #5E724A",
"- c #70694F",
"; c #677755",
": c #6A7A5A",
"> c #70805F",
", c #778667",
"< c #8DAB5F",
"1 c #A2A97F",
"2 c #BEC49F",
"3 c None",
/* pixels */
"33333333333333333333333333333333",
"33333333333333333333333333333333",
"33333333333333333333333333333333",
"33333333333333333333333333333333",
"33333333333333333333333333333333",
"333333333333333     333333333333",
"33333333333333 =@+++ 33333333333",
"3333333333333 +@@++@= 3333333333",
"333333333333 ++@=@+@== 333333333",
"333333333333 +@==@@;== 333333333",
"333333333333 @=;;>@>;= 333333333",
"333333333333 =;>>>@>>; 333333333",
"333333333333 =>   >@   333333333",
"3333333333333 >>2<>@<2 333333333",
"3333333333333 >>>>>@>; 333333333",
"3333333333333 =>>>>>@; 333333333",
"333333333333 #o=1>1>1@ 333333333",
"33333333333 +#oo=1O1O 3333333333",
"33333333333 ++ooo=OOo 3333333333",
"33333333333 ,+oooooo# 3333333333",
"33333333333 #,ooooOo# 3333333333",
"3333333333 ##XXXX::# 33333333333",
"3333333333 ##XXXX:## 33333333333",
"3333333333 ##X....## 33333333333",
"3333333333 ,,&&&&&,, 33333333333",
"33333333333 %&&&%&& 333333333333",
"33333333333 =%---&- 333333333333",
"33333333333 = %&&  3333333333333",
"333333333333 3 $$ 33333333333333",
"33333333333333 $** 3333333333333",
"33333333333        3333333333333",
"33333333333333333333333333333333"
};
