/* XPM */
static char *result[] = {
/* columns rows colors chars-per-pixel */
"32 32 24 1 ",
"  c black",
". c #0C0A07",
"X c #291A18",
"o c #362623",
"O c #3A2B28",
"+ c #4C342F",
"@ c #553D39",
"# c #4C403D",
"$ c #554C3C",
"% c #425059",
"& c #634A45",
"* c #657358",
"= c #57636B",
"- c #6E7D61",
"; c #803125",
": c #86362A",
"> c #8A382C",
", c #B56A68",
"< c #87947C",
"1 c #C0AC98",
"2 c #D2A394",
"3 c #E4B5A5",
"4 c #DBCBBC",
"5 c None",
/* pixels */
"55555555555555555555555555555555",
"55555555555555555555555555555555",
"55555555555555555555555555555555",
"55555555555555555555555555555555",
"55555555555555555555555555555555",
"55555555555555555555555555555555",
"55555555555555...5.5555555555555",
"5555555555....+++.+.555555555555",
"555555555.+++@&&&+&.555555555555",
"5555555555.@&&&&&&&&.55555555555",
"555555555.@&&&&&&&&&.55555555555",
"555555555.@&&&&++&&& 55555555555",
"55555555.++@&&&2+&+&@ 5555555555",
"555555555.+&&&222&;& 55555555555",
"555555555.@&&22.32.;@ 5555555555",
"55555555.+@&,22X33X: 55555555555",
"555555555.@@@2233332 55555555555",
"5555555555.@@@23332 555555555555",
"555555555555.@@222.5555555555555",
"55555555555.O-O111O.555555555555",
"55555555555.O-#4>;O.555555555555",
"5555555555.OO<#44>O#.55555555555",
"5555555555.#-##1>4O#.55555555555",
"555555555.##*O#414OO#.5555555555",
"555555555.32*OO%%%OO2.5555555555",
"5555555555...%==%==..55555555555",
"555555555555.===.==.555555555555",
"55555555555.%%%.%%.5555555555555",
"55555555555.ooo.oo.5555555555555",
"55555555555.o$$.o$$.555555555555",
"55555555555..........55555555555",
"55555555555555555555555555555555"
};
