/* XPM */
static char *result[] = {
/* columns rows colors chars-per-pixel */
"32 32 14 1 ",
"  c #0C0A07",
". c #2D1E1B",
"X c #3A2B28",
"o c #553D39",
"O c #554C3C",
"+ c #2E3F48",
"@ c #5F4641",
"# c #634A45",
"$ c #674E49",
"% c #5F7050",
"& c #657358",
"* c #8F9D84",
"= c #E4B5A5",
"- c None",
/* pixels */
"--------------------------------",
"--------------------------------",
"--------------------------------",
"--------------------------------",
"--------------------------------",
"--------------------------------",
"--------------------------------",
"--------------------------------",
"--------------------------------",
"--------------------------------",
"--------------------------------",
"--------------------------------",
"--------------------------------",
"--------------------------------",
"--------------------------------",
"--------------------------------",
"--------------------------------",
"--------------------------------",
"--------------------------------",
"--------------------------------",
"--------------------------------",
"-----------------------  -------",
"---------------------- oo    ---",
"----------------------  @oooo --",
"----------------   -- o@@@@@@o -",
"--------------- *%*  o@@$#$@$ --",
"-------------- &&&&&$$##@@@##$ -",
"----------    &&&XXoo#$@@@@$@@ -",
"--------- .++++++&XX$$@@@$$@@@$ ",
"--------- OO=XXXXXXX@@@@@@$@@#@ ",
"----------                     -",
"--------------------------------"
};
