/* XPM */
static char *result[] = {
/* columns rows colors chars-per-pixel */
"32 32 21 1 ",
"  c #0C0A07",
". c #2D1E1B",
"X c #3A2B28",
"o c #4C342F",
"O c #553D39",
"+ c #4C403D",
"@ c #554C3C",
"# c #2E3F48",
"$ c #425059",
"% c #634A45",
"& c #657358",
"* c #6E7D61",
"= c #803125",
"- c #86362A",
"; c #B56A68",
": c #87947C",
"> c #C0AC98",
", c #D2A394",
"< c #E4B5A5",
"1 c #DBCBBC",
"2 c None",
/* pixels */
"22222222222222222222222222222222",
"22222222222222222222222222222222",
"22222222222222222222222222222222",
"22222222222222222222222222222222",
"22222222222222222222222222222222",
"22222222222222222222222222222222",
"22222222222222222222222222222222",
"22222222222222222222222222222222",
"22222222222222222222222222222222",
"22222222222222222222222222222222",
"22222222222222222222222222222222",
"222222222222 2  2222222222222222",
"2222222222  o oo  22222222222222",
"222222222 O%%o%%Oo  222222222222",
"2222222222 %%%%%%%oO 22222222222",
"222222222 O%%%%%%%OO 22222222222",
"222222222 %oo%%%%%%O 22222222222",
"22222222 o%,o%o%%%Ooo 2222222222",
"222222222 %,,%=%%%%o 22222222222",
"222222222 ,,,<<=%o%OO 2222222222",
"22222222 o, << -,;%O 22222222222",
"222222222 ,<<<<,,OOO 22222222222",
"2222222222 ,<<<,OOO 222222222222",
"22222222222 ,,, OO 2222222222222",
"2222222222 X>>>X*X 2222222222222",
"2222222222 X1==+*X 2222222222222",
"2222222222 X11=+:XX 222222222222",
"2222222222 X>=1++*XX   222222222",
"2222222222 X1>1+X#&XX#. 22222222",
"22222222222  $$XXX#,<@@ 22222222",
"22222222222            222222222",
"22222222222222222222222222222222"
};
