/* XPM */
static char *result[] = {
/* columns rows colors chars-per-pixel */
"32 32 9 1 ",
"  c #0C0A07",
". c #3A2B28",
"X c #553D39",
"o c #5D443F",
"O c #5F4641",
"+ c #634A45",
"@ c #674E49",
"# c #D2A394",
"$ c None",
/* pixels */
"$$$$$$$$$$$$$$$$$$$$$$$$$$$$$$$$",
"$$$$$$$$$$$$$$$$$$$$$$$$$$$$$$$$",
"$$$$$$$$$$$$$$$$$$$$$$$$$$$$$$$$",
"$$$$$$$$$$$$$$$$$$$$$$$$$$$$$$$$",
"$$$$$$$$$$$$$$$$$$$$$$$$$$$$$$$$",
"$$$$$$$$$$$$$$$$$$$$$$$$$$$$$$$$",
"$$$$$$$$$$$$$$$$$$$$$$$$$$$$$$$$",
"$$$$$$$$$$$$$$$$$$$$$$$$$$$$$$$$",
"$$$$$$$$$$$$$$$$$$$$$$$$$$$$$$$$",
"$$$$$$$$$$$$$$$$$$$$$$$$$$$$$$$$",
"$$$$$$$$$$$$$$$$$$$$$$$$$$$$$$$$",
"$$$$$$$$$$$$$$$$$$$$$$$$$$$$$$$$",
"$$$$$$$$$$$$$$$$$$$$$$$$$$$$$$$$",
"$$$$$$$$$$$$$$$$$$$$$$$$$$$$$$$$",
"$$$$$$$$$$$$$$$$$$$$$$$$$$$$$$$$",
"$$$$$$$$$$$$$$$$$$$$$$$$$$$$$$$$",
"$$$$$$$$$$$$$$$$$$$$$$$$$$$$$$$$",
"$$$$$$$$$$$$$$$$$$$$$$$$$$$$$$$$",
"$$$$$$$$$$$$$$$$$$$$$$$$$$$$$$$$",
"$$$$$$$$$$$$$$$$$$$$$$$$$$$$$$$$",
"$$$$$$$$$$$$$$$$$$$$$$$$$$$$$$$$",
"$$$$$$$$$$$$$  $$$$$$$$$$$$$$$$$",
"$$$$$$$$$$$$ XX    $$$$$$$$$$$$$",
"$$$$$$$$$$$$$ XXXXX   $$$$$$$$$$",
"$$$$$$$$$$$$ XoooooXXX $$$$$$$$$",
"$$$$$$$$$$  Xo@+oo@oo $$$$$$$$$$",
"$$$$$$$$$ @O+OOO++O+oo $$$$$$$$$",
"$$$$$$$$$$ @OOOOOOOO+o $$$$$$$$$",
"$$$$$$$   @OO@OOO@@OO+    $$$$$$",
"$$$$$$ #..OO+++OOO@+OO+..# $$$$$",
"$$$$$$$                   $$$$$$",
"$$$$$$$$$$$$$$$$$$$$$$$$$$$$$$$$"
};
