/* XPM */
static char *result[] = {
/* columns rows colors chars-per-pixel */
"32 32 23 1 ",
"  c black",
". c #0C0A07",
"X c #2D1E1B",
"o c #3A2B28",
"O c #4C342F",
"+ c #553D39",
"@ c #4C403D",
"# c #554C3C",
"$ c #2E3F48",
"% c #425059",
"& c #634A45",
"* c #657358",
"= c #6E7D61",
"- c #803125",
"; c #86362A",
": c #8A382C",
"> c #B56A68",
", c #87947C",
"< c #C0AC98",
"1 c #D2A394",
"2 c #E4B5A5",
"3 c #DBCBBC",
"4 c None",
/* pixels */
"44444444444444444444444444444444",
"44444444444444444444444444444444",
"44444444444444444444444444444444",
"44444444444444444444444444444444",
"44444444444444444444444444444444",
"44444444444444444444444444444444",
"44444444444444444444444444444444",
"44444444444444444444444444444444",
"44444444444444444444444444444444",
"44444444444444444444444444444444",
"44444444444444444444444444444444",
"44444444444444444...4.4444444444",
"4444444444444....OOO.O.444444444",
"444444444444.OOO+&&&O&.444444444",
"4444444444444.+&&&&&&&&.44444444",
"444444444444.+&&&&&&&&&.44444444",
"444444444444.+&&&&OO&&& 44444444",
"44444444444.OO+&&&1O&O&+ 4444444",
"444444444444.O&&&111&-& 44444444",
"444444444444.+&&112211-+ 4444444",
"44444444444.O+&>11.22.; 44444444",
"444444444444.+++1122221 44444444",
"4444444444444.+++12221 444444444",
"444444444444444.++111.4444444444",
"44444444444444.o=o<<<o.444444444",
"44444444444444.o=@3:-o.444444444",
"4444444444444.oo,@33:o.444444444",
"4444444444...oo=@@<:3o.444444444",
"444444444.X$oo*$o@3<3o.444444444",
"444444444.##21$ooo%%..4444444444",
"4444444444............4444444444",
"44444444444444444444444444444444"
};
