/* XPM */
static char *result[] = {
/* columns rows colors chars-per-pixel */
"32 32 15 1 ",
"  c #0C0A07",
". c #3A2B28",
"X c #553D39",
"o c #5D443F",
"O c #5F4641",
"+ c #425059",
"@ c #634A45",
"# c #674E49",
"$ c #6E6554",
"% c #57636B",
"& c #6E7D61",
"* c #817867",
"= c #8F9D84",
"- c #D2A394",
"; c None",
/* pixels */
";;;;;;;;;;;;;;;;;;;;;;;;;;;;;;;;",
";;;;;;;;;;;;;;;;;;;;;;;;;;;;;;;;",
";;;;;;;;;;;;;;;;;;;;;;;;;;;;;;;;",
";;;;;;;;;;;;;;;;;;;;;;;;;;;;;;;;",
";;;;;;;;;;;;;;;;;;;;;;;;;;;;;;;;",
";;;;;;;;;;;;;;;;;;;;;;;;;;;;;;;;",
";;;;;;;;;;;;;;;;;;;;;;;;;;;;;;;;",
";;;;;;;;;;;;;;;;;;;;;;;;;;;;;;;;",
";;;;;;;;;;;;;;;;;;;;;;;;;;;;;;;;",
";;;;;;;;;;;;;;;;;;;;;;;;;;;;;;;;",
";;;;;;;;;;;;;;;;;;;;;;;;;;;;;;;;",
";;;;;;;;;;;;;;;;;;;;;;;;;;;;;;;;",
";;;;;;;;;;;;;;;;;;;;;;;;;;;;;;;;",
";;;;;;;;;;;;;;;;;;;;;;;;;;;;;;;;",
";;;;;;;;;;;;;;;;;;;;;;;;;;;;;;;;",
";;;;;;;;;;;;;;;;;;;;;;;;;;;;;;;;",
";;;;;;;;;;;;;;;;;;;;;;;;;;;;;;;;",
";;;;;;;;;;;;;;;;;;;;;;;;;;;;;;;;",
";;;;;;;;;;;;;;;;;;;;;;;;;;;;;;;;",
";;;;;;;;;;;;;;;;;;;;;;;;;;;;;;;;",
";;;;;;;;;;;;;;;;;;;;;;;;;;;;;;;;",
";;;;;;;;;;;;;;;;;;  ;;;;;;;;;;;;",
";;;;;;;;;;;;;;    XX ;;;;;;;;;;;",
";;;;;;;;;;;   XXXXX ;;;;;;;;;;;;",
";;;;;;;;;; XXXoooooX ;;;;;;;;;;;",
";;;;;;;;;;; oo#===#oX  ;;;;;;;;;",
";;;;;;;;;; oo@&&&&&O@O# ;;;;;;;;",
";;;;;;;;;  ..++%%%++..  ;;;;;;;;",
";;;;;;;  ....**+.+**....  ;;;;;;",
";;;;;; -... o$$. .$$o ...- ;;;;;",
";;;;;;;                   ;;;;;;",
";;;;;;;;;;;;;;;;;;;;;;;;;;;;;;;;"
};
