/* XPM */
static char *cb4f2658f34d4a59bbba3f9675cfc0fexlYwwDCr15C7ibE8[] = {
/* columns rows colors chars-per-pixel */
"32 32 19 1 ",
"  c None",
". c #0C0A07",
"X c #291A18",
"o c #362623",
"O c #3A2B28",
"+ c #4C342F",
"@ c #553D39",
"# c #4C403D",
"$ c #554C3C",
"% c #425059",
"& c #634A45",
"* c #57636B",
"= c #6E7D61",
"- c #B56A68",
"; c #87947C",
": c #C0AC98",
"> c #D2A394",
", c #E4B5A5",
"< c #DBCBBC",
/* pixels */
"                                ",
"                                ",
"                                ",
"                                ",
"              ..  .             ",
"           ...++..+.            ",
"          .+++&&++&+.           ",
"           .&&&&&&&&&.          ",
"          .&&&&&&&&&&+.         ",
"          .&&&++&+&&&++.        ",
"         .++&&>+&>&&&&.         ",
"          .+&>>>&>>&&&.         ",
"          .&&>.,>,.>+&&.        ",
"         .@&->X,,,X>-@.         ",
"          .@@>,,,,,>@@.         ",
"           .@@>,,,>@@.          ",
"            .@.>>>.@.           ",
"           .O=O:::O=O.          ",
"           .O=#<<:#=O.          ",
"          .OO;#<<<#;OO.         ",
"          .#O=#:<<#=O#.         ",
"         .##.O#<:<#O.##.        ",
"         .,>.OO%%%OO.>,.        ",
"          ...%%%%%%%...         ",
"            .%*****%.           ",
"            .%**%**%.           ",
"            .%*%.%*%.           ",
"            .%%. .%%.           ",
"            .$$. .oo.           ",
"             ..  .$$.           ",
"             ..   ..            ",
"                                "
};
