/* XPM */
static char *result[] = {
/* columns rows colors chars-per-pixel */
"32 32 43 1 ",
"  c #2B1835",
". c #2D1836",
"X c #2C1937",
"o c #301B3A",
"O c #311B3B",
"+ c #311C3D",
"@ c #2E2235",
"# c #302438",
"$ c #322639",
"% c #33273A",
"& c #361F41",
"* c #362042",
"= c #382B40",
"- c #3B2248",
"; c #3D244A",
": c #3D244B",
"> c #40264D",
", c #413546",
"< c #43334C",
"1 c #45354E",
"2 c #44384A",
"3 c #45394B",
"4 c #473C4D",
"5 c #473751",
"6 c #4C3F52",
"7 c #4C4053",
"8 c #4D4054",
"9 c #4E4154",
"0 c #4E4155",
"q c #54465B",
"w c #55465B",
"e c #5A4C63",
"r c #5B4D63",
"t c #5C4C63",
"y c #5F4F66",
"u c #5F4F67",
"i c #5B4B6E",
"p c #62526A",
"a c #6D5A7D",
"s c #756183",
"d c #766284",
"f c #7E698B",
"g c #877193",
/* pixels */
">>>>>>>>>>>>>>>>>>>>>>>>>>>>>>>>",
"gggggg>ppppppp>gggggg>gggggg>ggg",
"pppppp>ppppppp>pppppp>pppppp>ppp",
"pppppp>ppppppp>555555>pppppp>555",
">>>>>>>>>>>>>>>>>>>>>>>>>>>>>>>>",
"ppp>pppppp>gggggg>pppppp>gggggg>",
"ppp>pppppp>pppppp>pppppp>pppppp>",
"555>pppppp>pppppp>pppppp>555555>",
">>>>>>>>>>>>>>>>>>>>>>>>>>>>>>>>",
"gggggg>ppppppp>pppppp>gggggg>ggg",
"pppppp>ppppppp>pppppp>pppppp>ppp",
"555555>ppppppp>555555>pppppp>555",
">>>>>>>>>>>>>>>>>>>>>>>>>>>>>>>>",
"ggg>pppppp>gggggg>pppppp>gggggg>",
"uuy;yuuuuu:uuuuuu:uuuuuu:uuuuuu:",
"111;yuuuuu:uuuuuu:uuuuuu:111111:",
"::;;;:::::::::::::::::::::::::::",
"rreett-fffffff-rrrrrr-ffffff-rrr",
"rreett-rrrrrrr-rrrrrr-rrrrrr-rrr",
"rreett-<<<<<<<-rrrrrr-<<<<<<-rrr",
"**&&&***************************",
"dds&qwwwww*dddddd*dddddd*wwwwww*",
"wwq&qwwwww*wwwwww*wwwwww*wwwwww*",
"007o890000+======+000000+000000+",
"++OoO+++++++++++++++++++++++++++",
"007689+aaaaaaa+000000+aaaaaa+000",
"443234X4444444X444444X444444X444",
"%%$#$%X%%%%%%%X444444X%%%%%%X%%%",
"XX. .XXXXXXXXXXXXXXXXXXXXXXXXXXX",
"iii@iiiiii@iiiiii@iiiiii@iiiiii@",
",,,@,,,,,,@,,,,,,@,,,,,,@,,,,,,@",
"@@@@@@@@@@@@@@@@@@@@@@@@@@@@@@@@"
};
